# xmcd
# 
# Track frame offsets:
#     182
#     24282
#     43180
#     70037
#     93985
#     121707
#     146870
#     161067
#     182257
#     206115
#     218535
#     242410
# 
# Disc length: 3499
# 
# Revision: 1
# Processed by: cddbd v1.5.2PL0 Copyright (c) Steve Scherf et al.
# Submitted via: fre:ac v1.0.31
# 
DISCID=9c0da90c
DTITLE=Michael Nesmith - Tropical Campfires
DYEAR=2001
DGENRE=Rock/Pop
TTITLE0=Yellow Butterfly
TTITLE1=Laugh Kills Lonesome
TTITLE2=Moon Over Rio Grande
TTITLE3=One...
TTITLE4=Juliana
TTITLE5=Brazil
TTITLE6=In the Still of the Night
TTITLE7=Rising in Love
TTITLE8=Begin the Beguine
TTITLE9=I Am Not That
TTITLE10=for the Island
TTITLE11=Twilight on the Trail
EXTD=
EXTT0=
EXTT1=
EXTT2=
EXTT3=
EXTT4=
EXTT5=
EXTT6=
EXTT7=
EXTT8=
EXTT9=
EXTT10=
EXTT11=
PLAYORDER=
